<svg width="23" height="23" viewBox="0 0 23 23" fill="none" xmlns="http://www.w3.org/2000/svg">
<path d="M20.3462 13.5V15.1875H15.0385V20.25H13.2692V15.1875H7.96154V13.5H13.2692V8.4375H15.0385V13.5H20.3462ZM23 14.3438C23 19.0038 19.0396 22.7812 14.1538 22.7812C11.8839 22.7812 9.81392 21.9653 8.24815 20.6246C7.37238 21.4363 6.17992 21.9375 4.86538 21.9375C2.18235 21.9375 0 19.856 0 17.2969V4.64062C0 2.08153 2.18235 0 4.86538 0C7.54842 0 9.73077 2.08153 9.73077 4.64062V7.03519C11.032 6.31716 12.5421 5.90625 14.1538 5.90625C19.0396 5.90625 23 9.68372 23 14.3438ZM1.76923 10.125H6.49131C6.89469 9.46013 7.39008 8.85347 7.96154 8.31853V4.64062C7.96154 3.01219 6.57269 1.6875 4.86538 1.6875C3.15808 1.6875 1.76923 3.01219 1.76923 4.64062V10.125ZM4.86538 20.25C5.72169 20.25 6.49485 19.9159 7.05392 19.3776C5.957 17.9719 5.30769 16.2304 5.30769 14.3438C5.30769 13.462 5.45012 12.6115 5.71285 11.8125H1.76923V17.2969C1.76923 18.9253 3.15808 20.25 4.86538 20.25ZM21.2308 14.3438C21.2308 10.622 18.0559 7.59375 14.1538 7.59375C10.2518 7.59375 7.07692 10.622 7.07692 14.3438C7.07692 18.0655 10.2518 21.0938 14.1538 21.0938C18.0559 21.0938 21.2308 18.0655 21.2308 14.3438Z" fill="#1C274C"/>
</svg>
