<svg width="305" height="58" viewBox="0 0 305 58" fill="none" xmlns="http://www.w3.org/2000/svg">
<g clip-path="url(#clip0_115142_2)">
<path d="M66.9523 33.005V27.4814H74.4364C76.3317 27.4814 77.9903 27.0553 79.4118 26.2032C80.8334 25.3206 81.9343 24.0881 82.7148 22.5055C83.5231 20.9229 83.9273 19.0513 83.9273 16.8905C83.9273 14.7906 83.5231 12.9646 82.7148 11.4125C81.9066 9.82995 80.7916 8.6127 79.37 7.76052C77.9485 6.878 76.304 6.43667 74.4364 6.43667H66.8269V0.913002H74.52C76.6941 0.913002 78.7011 1.30868 80.5407 2.09991C82.4083 2.89113 84.0249 4.01721 85.3907 5.47801C86.7843 6.90834 87.8575 8.59739 88.6101 10.5452C89.3906 12.493 89.7808 14.6232 89.7808 16.9362C89.7808 19.2492 89.3906 21.3947 88.6101 23.3729C87.8575 25.3206 86.7984 27.0249 85.4325 28.4857C84.0667 29.916 82.4501 31.0269 80.5825 31.8181C78.7429 32.6094 76.7499 33.005 74.6036 33.005H66.9523ZM63.064 33.005V0.913002H68.7502V33.005H63.064ZM93.7139 33.005V10.956H99.1911V33.005H93.7139ZM99.1911 20.8165L97.0588 19.2644C97.3096 16.5558 98.0343 14.4254 99.2329 12.8733C100.432 11.2908 102.16 10.4995 104.417 10.4995C105.393 10.4995 106.271 10.6821 107.051 11.0473C107.832 11.3821 108.543 11.9452 109.184 12.7364L105.755 17.0275C105.449 16.6623 105.072 16.3884 104.626 16.2058C104.208 16.0232 103.721 15.9319 103.163 15.9319C101.992 15.9319 101.031 16.3427 100.278 17.1644C99.5535 17.9557 99.1911 19.1731 99.1911 20.8165ZM112.339 33.4615C111.336 33.4615 110.513 33.0963 109.872 32.3659C109.231 31.6355 108.911 30.7377 108.911 29.6726C108.911 28.6075 109.231 27.7096 109.872 26.9792C110.513 26.2488 111.336 25.8836 112.339 25.8836C113.315 25.8836 114.123 26.2488 114.764 26.9792C115.405 27.7096 115.726 28.6075 115.726 29.6726C115.726 30.7377 115.405 31.6355 114.764 32.3659C114.123 33.0963 113.315 33.4615 112.339 33.4615ZM125.674 21.0904V16.0232H132.489C133.38 16.0232 134.188 15.8254 134.914 15.4297C135.638 15.0341 136.21 14.4711 136.628 13.7407C137.046 12.9798 137.255 12.0668 137.255 11.0017C137.255 9.9669 137.046 9.0692 136.628 8.30832C136.21 7.54744 135.638 6.9693 134.914 6.57362C134.188 6.17794 133.38 5.98017 132.489 5.98017H125.674V0.913002H133.074C134.941 0.913002 136.613 1.32385 138.091 2.14556C139.597 2.96726 140.781 4.13899 141.645 5.66062C142.509 7.1519 142.941 8.93225 142.941 11.0017C142.941 13.0711 142.509 14.8668 141.645 16.3884C140.781 17.8797 139.597 19.0361 138.091 19.8578C136.613 20.6795 134.941 21.0904 133.074 21.0904H125.674ZM121.493 33.005V0.913002H127.179V33.005H121.493ZM160.26 33.005V20.36C160.26 19.0513 159.883 17.9861 159.131 17.1644C158.378 16.3427 157.403 15.9319 156.204 15.9319C155.423 15.9319 154.727 16.1145 154.113 16.4797C153.5 16.8449 153.013 17.3622 152.65 18.0318C152.316 18.7014 152.148 19.4774 152.148 20.36L150.016 19.1731C150.016 17.4383 150.351 15.9319 151.019 14.6537C151.688 13.345 152.608 12.3255 153.779 11.5951C154.978 10.8647 156.343 10.4995 157.876 10.4995C159.41 10.4995 160.761 10.8647 161.932 11.5951C163.131 12.3255 164.064 13.3298 164.733 14.608C165.402 15.8862 165.737 17.3622 165.737 19.0361V33.005H160.26ZM146.671 33.005V0H152.148V33.005H146.671ZM178.595 33.4615C176.755 33.4615 175.096 32.9594 173.619 31.9551C172.141 30.9508 170.985 29.5813 170.149 27.8466C169.313 26.1119 168.895 24.1641 168.895 22.0034C168.895 19.8122 169.313 17.8492 170.149 16.1145C170.985 14.3798 172.141 13.0103 173.619 12.006C175.096 11.0017 176.755 10.4995 178.595 10.4995C180.043 10.4995 181.339 10.8191 182.483 11.4582C183.625 12.0973 184.532 12.9951 185.201 14.1515C185.897 15.2776 186.273 16.5558 186.33 17.9861V25.9293C186.273 27.3901 185.897 28.6834 185.201 29.8095C184.532 30.9356 183.625 31.8333 182.483 32.5029C181.339 33.142 180.043 33.4615 178.595 33.4615ZM179.598 27.9379C181.13 27.9379 182.371 27.3901 183.319 26.2945C184.266 25.1684 184.741 23.7229 184.741 21.9577C184.741 20.8013 184.517 19.7817 184.072 18.8991C183.654 17.9861 183.054 17.2862 182.274 16.7992C181.521 16.2819 180.629 16.0232 179.598 16.0232C178.595 16.0232 177.702 16.2819 176.922 16.7992C176.17 17.2862 175.57 17.9861 175.124 18.8991C174.706 19.7817 174.497 20.8013 174.497 21.9577C174.497 23.1446 174.706 24.1946 175.124 25.1076C175.57 25.9901 176.17 26.6901 176.922 27.2075C177.702 27.6945 178.595 27.9379 179.598 27.9379ZM184.448 33.005V27.0705L185.326 21.6838L184.448 16.3884V10.956H189.883V33.005H184.448ZM194.729 33.005V10.956H200.206V33.005H194.729ZM200.206 20.8165L198.073 19.2644C198.324 16.5558 199.049 14.4254 200.248 12.8733C201.447 11.2908 203.174 10.4995 205.432 10.4995C206.407 10.4995 207.285 10.6821 208.066 11.0473C208.847 11.3821 209.558 11.9452 210.198 12.7364L206.77 17.0275C206.464 16.6623 206.087 16.3884 205.641 16.2058C205.223 16.0232 204.735 15.9319 204.178 15.9319C203.007 15.9319 202.045 16.3427 201.293 17.1644C200.568 17.9557 200.206 19.1731 200.206 20.8165ZM212.041 33.005V10.956H217.518V33.005H212.041ZM225.211 33.005V19.9948C225.211 18.7165 224.834 17.7274 224.082 17.0275C223.358 16.2971 222.451 15.9319 221.364 15.9319C220.64 15.9319 219.984 16.0993 219.399 16.434C218.814 16.7384 218.354 17.1949 218.019 17.8035C217.685 18.4122 217.518 19.1426 217.518 19.9948L215.385 18.8535C215.385 17.1493 215.72 15.6732 216.389 14.4254C217.086 13.1777 218.019 12.2191 219.19 11.5495C220.361 10.8496 221.685 10.4995 223.162 10.4995C224.555 10.4995 225.824 10.8496 226.967 11.5495C228.109 12.2191 229.016 13.1777 229.684 14.4254C230.353 15.6428 230.688 17.1188 230.688 18.8535V33.005H225.211ZM238.381 33.005V19.9948C238.381 18.7165 238.005 17.7274 237.252 17.0275C236.528 16.2971 235.622 15.9319 234.535 15.9319C233.837 15.9319 233.183 16.0993 232.569 16.434C231.984 16.7384 231.524 17.1949 231.19 17.8035C230.855 18.4122 230.688 19.1426 230.688 19.9948L227.552 19.1731C227.664 17.4079 228.096 15.8862 228.848 14.608C229.601 13.2994 230.591 12.2951 231.817 11.5951C233.043 10.8647 234.409 10.4995 235.914 10.4995C237.419 10.4995 238.771 10.8496 239.97 11.5495C241.169 12.2191 242.116 13.1929 242.813 14.4711C243.51 15.7493 243.858 17.2709 243.858 19.0361V33.005H238.381ZM257.956 33.4615C255.838 33.4615 253.957 32.9746 252.311 32.0007C250.667 30.9964 249.358 29.6269 248.381 27.8922C247.434 26.1575 246.96 24.1794 246.96 21.9577C246.96 19.7665 247.419 17.8187 248.339 16.1145C249.287 14.3798 250.57 13.0103 252.186 12.006C253.803 10.9712 255.601 10.4539 257.579 10.4539C259.531 10.4539 261.245 10.9409 262.722 11.9147C264.227 12.8582 265.398 14.1667 266.234 15.8406C267.099 17.484 267.53 19.3557 267.53 21.4556C267.53 21.8512 267.503 22.2621 267.447 22.6881C267.42 23.0838 267.35 23.5403 267.238 24.0576L250.263 24.1033V19.6296L264.687 19.5839L262.471 21.4556C262.416 20.1469 262.193 19.0513 261.802 18.1687C261.441 17.2862 260.897 16.6166 260.172 16.1601C259.476 15.6732 258.611 15.4297 257.579 15.4297C256.492 15.4297 255.545 15.7036 254.736 16.2514C253.928 16.7688 253.301 17.5145 252.855 18.4883C252.437 19.4318 252.228 20.5577 252.228 21.8664C252.228 23.2054 252.451 24.3772 252.897 25.3815C253.371 26.3553 254.04 27.1162 254.904 27.664C255.768 28.1813 256.771 28.44 257.914 28.44C258.946 28.44 259.879 28.2574 260.715 27.8922C261.551 27.4965 262.277 26.9184 262.889 26.1575L266.109 29.6726C265.134 30.9203 263.935 31.8638 262.513 32.5029C261.12 33.142 259.601 33.4615 257.956 33.4615ZM279.447 33.4615C277.58 33.4615 275.907 32.9594 274.43 31.9551C272.953 30.9508 271.783 29.5813 270.918 27.8466C270.082 26.1119 269.664 24.1641 269.664 22.0034C269.664 19.8122 270.082 17.8492 270.918 16.1145C271.783 14.3798 272.939 13.0103 274.388 12.006C275.865 11.0017 277.552 10.4995 279.447 10.4995C280.897 10.4995 282.193 10.8191 283.336 11.4582C284.507 12.0973 285.44 12.9951 286.137 14.1515C286.861 15.2776 287.252 16.5558 287.308 17.9861V25.838C287.252 27.2683 286.876 28.5618 286.179 29.7182C285.482 30.8747 284.548 31.7877 283.378 32.4572C282.207 33.1268 280.897 33.4615 279.447 33.4615ZM280.367 27.9379C281.399 27.9379 282.291 27.6945 283.043 27.2075C283.824 26.6901 284.423 25.9901 284.841 25.1076C285.287 24.1946 285.51 23.1446 285.51 21.9577C285.51 20.8013 285.287 19.7817 284.841 18.8991C284.423 17.9861 283.824 17.2862 283.043 16.7992C282.291 16.2819 281.413 16.0232 280.409 16.0232C279.377 16.0232 278.472 16.2819 277.691 16.7992C276.939 17.3166 276.34 18.0166 275.894 18.8991C275.475 19.7817 275.266 20.8013 275.266 21.9577C275.266 23.1446 275.475 24.1946 275.894 25.1076C276.34 25.9901 276.952 26.6901 277.733 27.2075C278.514 27.6945 279.392 27.9379 280.367 27.9379ZM290.653 33.005H285.217V27.0705L286.095 21.6838L285.175 16.3884V0H290.653V33.005ZM295.498 33.005V10.956H301.017V33.005H295.498ZM298.257 7.39532C297.366 7.39532 296.627 7.07577 296.041 6.43667C295.456 5.76709 295.163 4.94539 295.163 3.97156C295.163 3.02808 295.456 2.22168 296.041 1.5521C296.627 0.882524 297.366 0.547801 298.257 0.547801C299.177 0.547801 299.916 0.882524 300.473 1.5521C301.059 2.22168 301.351 3.02808 301.351 3.97156C301.351 4.94539 301.059 5.76709 300.473 6.43667C299.916 7.07577 299.177 7.39532 298.257 7.39532ZM315.402 33.4615C313.338 33.4615 311.485 32.9594 309.841 31.9551C308.196 30.9508 306.9 29.5813 305.953 27.8466C305.005 26.1119 304.531 24.1641 304.531 22.0034C304.531 19.8122 305.005 17.8492 305.953 16.1145C306.9 14.3798 308.196 13.0103 309.841 12.006C311.514 10.9712 313.367 10.4539 315.402 10.4539C316.991 10.4539 318.454 10.7734 319.792 11.4125C321.13 12.0516 322.286 12.9646 323.262 14.1515L319.75 18.0318C319.22 17.3927 318.58 16.9057 317.827 16.571C317.101 16.2363 316.294 16.0688 315.402 16.0688C314.399 16.0688 313.492 16.3276 312.684 16.8449C311.903 17.3319 311.276 18.0166 310.803 18.8991C310.356 19.7513 310.134 20.7708 310.134 21.9577C310.134 23.1141 310.356 24.1489 310.803 25.0619C311.276 25.9444 311.903 26.6445 312.684 27.1618C313.492 27.6488 314.399 27.8922 315.402 27.8922C316.322 27.8922 317.143 27.7248 317.869 27.3901C318.621 27.0249 319.262 26.5075 319.792 25.838L323.346 29.7182C322.314 30.9356 321.13 31.8638 319.792 32.5029C318.454 33.142 316.991 33.4615 315.402 33.4615Z" fill="#000B6D"/>
<mask id="mask0_115142_2" style="mask-type:luminance" maskUnits="userSpaceOnUse" x="0" y="0" width="61" height="58">
<path d="M60.0929 0H0V58H60.0929V0Z" fill="white"/>
</mask>
<g mask="url(#mask0_115142_2)">
<path d="M45.4242 58H7.86616C6.87006 58 5.91475 57.6181 5.2104 56.9382C4.50605 56.2585 4.11035 55.3364 4.11035 54.375V48.3333C4.1321 43.6658 5.69865 39.1273 8.58142 35.3797C11.4643 31.6322 15.5124 28.872 20.1351 27.5017L21.6374 32.1295C18.031 33.1854 14.8697 35.3282 12.6168 38.2442C10.3638 41.1602 9.13773 44.6959 9.1181 48.3333V53.1667H44.1723V48.3333C44.1904 44.7022 42.9906 41.1629 40.7521 38.2445C38.5136 35.326 35.3566 33.185 31.7531 32.1417L33.2053 27.5138C37.8398 28.8546 41.9002 31.6071 44.7796 35.3598C47.6589 39.1124 49.2027 43.6636 49.1801 48.3333V54.375C49.1801 55.3364 48.7843 56.2585 48.08 56.9382C47.3757 57.6181 46.4203 58 45.4242 58Z" fill="#5F6FFF" stroke="#5F6FFF" stroke-width="1.33333"/>
<path d="M26.645 33.8334H25.7186C22.1813 33.5518 18.8869 31.9838 16.5021 29.4465C14.1173 26.9093 12.8204 23.5924 12.8736 20.1671V3.625C12.8736 2.66359 13.2694 1.74155 13.9737 1.06174C14.6781 0.381918 15.6334 0 16.6295 0H36.6605C37.6565 0 38.6119 0.381918 39.3162 1.06174C40.0206 1.74155 40.4163 2.66359 40.4163 3.625V20.5416C40.4115 22.3546 40.0225 24.1473 39.2733 25.8097C38.524 27.472 37.4303 28.969 36.0595 30.2084C33.5207 32.5395 30.1492 33.8377 26.645 33.8334ZM17.8814 4.83334V20.1671C17.8309 22.3651 18.6469 24.4998 20.1644 26.1394C21.682 27.7791 23.7879 28.8015 26.0566 29C27.2559 29.078 28.459 28.9168 29.5912 28.5267C30.7233 28.1367 31.7602 27.526 32.6373 26.7327C33.5144 25.9393 34.2131 24.9804 34.6899 23.9153C35.1667 22.8503 35.4112 21.7019 35.4085 20.5416V4.83334H17.8814Z" fill="#5F6FFF" stroke="#5F6FFF" stroke-width="1.33333"/>
<path d="M37.9128 12.0833H15.3779V16.9166H37.9128V12.0833Z" fill="#5F6FFF" stroke="#5F6FFF" stroke-width="1.33333"/>
<path d="M20.3853 41.0833V45.9166H32.9047V41.0833H20.3853Z" fill="#5F6FFF" stroke="#5F6FFF" stroke-width="1.33333"/>
<path d="M24.1416 49.5416H29.1494V37.4583H24.1416V49.5416Z" fill="#5F6FFF" stroke="#5F6FFF" stroke-width="1.33333"/>
</g>
<path d="M64.7305 57.5769V54.6729H69.0265C70.1145 54.6729 71.0665 54.4489 71.8825 54.0009C72.6985 53.5369 73.3305 52.8889 73.7785 52.0569C74.2425 51.2249 74.4745 50.2409 74.4745 49.1049C74.4745 48.0009 74.2425 47.0409 73.7785 46.2249C73.3145 45.3929 72.6745 44.7529 71.8585 44.3049C71.0425 43.8409 70.0985 43.6089 69.0265 43.6089H64.6585V40.7049H69.0745C70.3225 40.7049 71.4745 40.9129 72.5305 41.3289C73.6025 41.7449 74.5305 42.3369 75.3145 43.1049C76.1145 43.8569 76.7305 44.7449 77.1625 45.7689C77.6105 46.7929 77.8345 47.9129 77.8345 49.1289C77.8345 50.3449 77.6105 51.4729 77.1625 52.5129C76.7305 53.5369 76.1225 54.4329 75.3385 55.2009C74.5545 55.9529 73.6265 56.5369 72.5545 56.9529C71.4985 57.3689 70.3545 57.5769 69.1225 57.5769H64.7305ZM62.4985 57.5769V40.7049H65.7625V57.5769H62.4985ZM84.9402 57.8169C83.8842 57.8169 82.9322 57.5529 82.0842 57.0249C81.2362 56.4969 80.5722 55.7769 80.0922 54.8649C79.6122 53.9529 79.3722 52.9289 79.3722 51.7929C79.3722 50.6409 79.6122 49.6089 80.0922 48.6969C80.5722 47.7849 81.2362 47.0649 82.0842 46.5369C82.9322 46.0089 83.8842 45.7449 84.9402 45.7449C85.7722 45.7449 86.5162 45.9129 87.1722 46.2489C87.8282 46.5849 88.3482 47.0569 88.7322 47.6649C89.1322 48.2569 89.3482 48.9289 89.3802 49.6809V53.8569C89.3482 54.6249 89.1322 55.3049 88.7322 55.8969C88.3482 56.4889 87.8282 56.9609 87.1722 57.3129C86.5162 57.6489 85.7722 57.8169 84.9402 57.8169ZM85.5162 54.9129C86.3962 54.9129 87.1082 54.6249 87.6522 54.0489C88.1962 53.4569 88.4682 52.6969 88.4682 51.7689C88.4682 51.1609 88.3402 50.6249 88.0842 50.1609C87.8442 49.6809 87.5002 49.3129 87.0522 49.0569C86.6202 48.7849 86.1082 48.6489 85.5162 48.6489C84.9402 48.6489 84.4282 48.7849 83.9802 49.0569C83.5482 49.3129 83.2042 49.6809 82.9482 50.1609C82.7082 50.6249 82.5882 51.1609 82.5882 51.7689C82.5882 52.3929 82.7082 52.9449 82.9482 53.4249C83.2042 53.8889 83.5482 54.2569 83.9802 54.5289C84.4282 54.7849 84.9402 54.9129 85.5162 54.9129ZM88.3002 57.5769V54.4569L88.8042 51.6249L88.3002 48.8409V45.9849H91.4202V57.5769H88.3002ZM98.1856 57.8409C97.5296 57.8409 96.8816 57.7529 96.2416 57.5769C95.6176 57.4009 95.0416 57.1609 94.5136 56.8569C93.9856 56.5369 93.5296 56.1529 93.1456 55.7049L95.0176 53.8089C95.4176 54.2569 95.8816 54.5929 96.4096 54.8169C96.9376 55.0409 97.5216 55.1529 98.1616 55.1529C98.6736 55.1529 99.0576 55.0809 99.3136 54.9369C99.5856 54.7929 99.7216 54.5769 99.7216 54.2889C99.7216 53.9689 99.5776 53.7209 99.2896 53.5449C99.0176 53.3689 98.6576 53.2249 98.2096 53.1129C97.7616 52.9849 97.2896 52.8489 96.7936 52.7049C96.3136 52.5449 95.8496 52.3449 95.4016 52.1049C94.9536 51.8489 94.5856 51.5049 94.2976 51.0729C94.0256 50.6249 93.8896 50.0489 93.8896 49.3449C93.8896 48.6089 94.0656 47.9689 94.4176 47.4249C94.7856 46.8809 95.3056 46.4569 95.9776 46.1529C96.6496 45.8489 97.4416 45.6969 98.3536 45.6969C99.3136 45.6969 100.178 45.8649 100.946 46.2009C101.73 46.5369 102.378 47.0409 102.89 47.7129L100.994 49.6089C100.642 49.1769 100.242 48.8649 99.7936 48.6729C99.3616 48.4809 98.8896 48.3849 98.3776 48.3849C97.9136 48.3849 97.5536 48.4569 97.2976 48.6009C97.0576 48.7449 96.9376 48.9449 96.9376 49.2009C96.9376 49.4889 97.0736 49.7129 97.3456 49.8729C97.6336 50.0329 98.0016 50.1769 98.4496 50.3049C98.8976 50.4169 99.3616 50.5529 99.8416 50.7129C100.338 50.8569 100.802 51.0649 101.234 51.3369C101.682 51.6089 102.042 51.9689 102.314 52.4169C102.602 52.8649 102.746 53.4409 102.746 54.1449C102.746 55.2809 102.338 56.1849 101.522 56.8569C100.706 57.5129 99.5936 57.8409 98.1856 57.8409ZM112.666 57.5769V50.9289C112.666 50.2409 112.45 49.6809 112.018 49.2489C111.586 48.8169 111.026 48.6009 110.338 48.6009C109.89 48.6009 109.49 48.6969 109.138 48.8889C108.786 49.0809 108.506 49.3529 108.298 49.7049C108.106 50.0569 108.01 50.4649 108.01 50.9289L106.786 50.3049C106.786 49.3929 106.978 48.6009 107.362 47.9289C107.746 47.2409 108.274 46.7049 108.946 46.3209C109.634 45.9369 110.418 45.7449 111.298 45.7449C112.178 45.7449 112.954 45.9369 113.626 46.3209C114.314 46.7049 114.85 47.2329 115.234 47.9049C115.618 48.5769 115.81 49.3529 115.81 50.2329V57.5769H112.666ZM104.866 57.5769V40.2249H108.01V57.5769H104.866ZM124.774 57.8169C123.942 57.8169 123.19 57.6409 122.518 57.2889C121.846 56.9369 121.31 56.4569 120.91 55.8489C120.51 55.2409 120.294 54.5609 120.262 53.8089V49.6809C120.294 48.9289 120.51 48.2569 120.91 47.6649C121.326 47.0569 121.87 46.5849 122.542 46.2489C123.214 45.9129 123.958 45.7449 124.774 45.7449C125.846 45.7449 126.806 46.0089 127.654 46.5369C128.502 47.0649 129.166 47.7849 129.646 48.6969C130.142 49.6089 130.39 50.6409 130.39 51.7929C130.39 52.9289 130.142 53.9529 129.646 54.8649C129.166 55.7769 128.502 56.4969 127.654 57.0249C126.806 57.5529 125.846 57.8169 124.774 57.8169ZM118.342 57.5769V40.2249H121.486V48.8409L120.958 51.6249L121.462 54.4569V57.5769H118.342ZM124.246 54.9129C124.822 54.9129 125.326 54.7849 125.758 54.5289C126.206 54.2569 126.55 53.8889 126.79 53.4249C127.046 52.9449 127.174 52.3929 127.174 51.7689C127.174 51.1609 127.046 50.6249 126.79 50.1609C126.55 49.6809 126.206 49.3129 125.758 49.0569C125.31 48.7849 124.798 48.6489 124.222 48.6489C123.646 48.6489 123.134 48.7849 122.686 49.0569C122.254 49.3129 121.91 49.6809 121.654 50.1609C121.414 50.6249 121.294 51.1609 121.294 51.7689C121.294 52.3929 121.414 52.9449 121.654 53.4249C121.91 53.8889 122.262 54.2569 122.71 54.5289C123.158 54.7849 123.67 54.9129 124.246 54.9129ZM137.9 57.8169C136.732 57.8169 135.676 57.5529 134.732 57.0249C133.804 56.4809 133.06 55.7529 132.5 54.8409C131.956 53.9129 131.684 52.8809 131.684 51.7449C131.684 50.6089 131.956 49.5929 132.5 48.6969C133.044 47.7849 133.788 47.0649 134.732 46.5369C135.676 45.9929 136.724 45.7209 137.876 45.7209C139.06 45.7209 140.116 45.9929 141.044 46.5369C141.988 47.0649 142.732 47.7849 143.276 48.6969C143.82 49.5929 144.092 50.6089 144.092 51.7449C144.092 52.8809 143.82 53.9129 143.276 54.8409C142.732 55.7529 141.988 56.4809 141.044 57.0249C140.116 57.5529 139.068 57.8169 137.9 57.8169ZM137.876 54.8889C138.468 54.8889 138.988 54.7609 139.436 54.5049C139.9 54.2329 140.252 53.8649 140.492 53.4009C140.748 52.9209 140.876 52.3769 140.876 51.7689C140.876 51.1609 140.748 50.6249 140.492 50.1609C140.236 49.6969 139.884 49.3369 139.436 49.0809C138.988 48.8089 138.468 48.6729 137.876 48.6729C137.3 48.6729 136.788 48.8089 136.34 49.0809C135.892 49.3369 135.54 49.6969 135.284 50.1609C135.028 50.6249 134.9 51.1609 134.9 51.7689C134.9 52.3769 135.028 52.9209 135.284 53.4009C135.54 53.8649 135.892 54.2329 136.34 54.5049C136.788 54.7609 137.3 54.8889 137.876 54.8889ZM150.964 57.8169C149.908 57.8169 148.956 57.5529 148.108 57.0249C147.26 56.4969 146.596 55.7769 146.116 54.8649C145.636 53.9529 145.396 52.9289 145.396 51.7929C145.396 50.6409 145.636 49.6089 146.116 48.6969C146.596 47.7849 147.26 47.0649 148.108 46.5369C148.956 46.0089 149.908 45.7449 150.964 45.7449C151.796 45.7449 152.54 45.9129 153.196 46.2489C153.852 46.5849 154.372 47.0569 154.756 47.6649C155.156 48.2569 155.372 48.9289 155.404 49.6809V53.8569C155.372 54.6249 155.156 55.3049 154.756 55.8969C154.372 56.4889 153.852 56.9609 153.196 57.3129C152.54 57.6489 151.796 57.8169 150.964 57.8169ZM151.54 54.9129C152.42 54.9129 153.132 54.6249 153.676 54.0489C154.22 53.4569 154.492 52.6969 154.492 51.7689C154.492 51.1609 154.364 50.6249 154.108 50.1609C153.868 49.6809 153.524 49.3129 153.076 49.0569C152.644 48.7849 152.132 48.6489 151.54 48.6489C150.964 48.6489 150.452 48.7849 150.004 49.0569C149.572 49.3129 149.228 49.6809 148.972 50.1609C148.732 50.6249 148.612 51.1609 148.612 51.7689C148.612 52.3929 148.732 52.9449 148.972 53.4249C149.228 53.8889 149.572 54.2569 150.004 54.5289C150.452 54.7849 150.964 54.9129 151.54 54.9129ZM154.324 57.5769V54.4569L154.828 51.6249L154.324 48.8409V45.9849H157.444V57.5769H154.324ZM160.225 57.5769V45.9849H163.369V57.5769H160.225ZM163.369 51.1689L162.145 50.3529C162.289 48.9289 162.705 47.8089 163.393 46.9929C164.081 46.1609 165.073 45.7449 166.369 45.7449C166.929 45.7449 167.433 45.8409 167.881 46.0329C168.329 46.2089 168.737 46.5049 169.105 46.9209L167.137 49.1769C166.961 48.9849 166.745 48.8409 166.489 48.7449C166.249 48.6489 165.969 48.6009 165.649 48.6009C164.977 48.6009 164.425 48.8169 163.993 49.2489C163.577 49.6649 163.369 50.3049 163.369 51.1689ZM174.777 57.8169C173.705 57.8169 172.745 57.5529 171.897 57.0249C171.049 56.4969 170.377 55.7769 169.881 54.8649C169.401 53.9529 169.161 52.9289 169.161 51.7929C169.161 50.6409 169.401 49.6089 169.881 48.6969C170.377 47.7849 171.041 47.0649 171.873 46.5369C172.721 46.0089 173.689 45.7449 174.777 45.7449C175.609 45.7449 176.353 45.9129 177.009 46.2489C177.681 46.5849 178.217 47.0569 178.617 47.6649C179.033 48.2569 179.257 48.9289 179.289 49.6809V53.8089C179.257 54.5609 179.041 55.2409 178.641 55.8489C178.241 56.4569 177.705 56.9369 177.033 57.2889C176.361 57.6409 175.609 57.8169 174.777 57.8169ZM175.305 54.9129C175.897 54.9129 176.409 54.7849 176.841 54.5289C177.289 54.2569 177.633 53.8889 177.873 53.4249C178.129 52.9449 178.257 52.3929 178.257 51.7689C178.257 51.1609 178.129 50.6249 177.873 50.1609C177.633 49.6809 177.289 49.3129 176.841 49.0569C176.409 48.7849 175.905 48.6489 175.329 48.6489C174.737 48.6489 174.217 48.7849 173.769 49.0569C173.337 49.3289 172.993 49.6969 172.737 50.1609C172.497 50.6249 172.377 51.1609 172.377 51.7689C172.377 52.3929 172.497 52.9449 172.737 53.4249C172.993 53.8889 173.345 54.2569 173.793 54.5289C174.241 54.7849 174.745 54.9129 175.305 54.9129ZM181.209 57.5769H178.089V54.4569L178.593 51.6249L178.065 48.8409V40.2249H181.209V57.5769ZM191.414 51.3129V48.6489H195.326C195.838 48.6489 196.302 48.5449 196.718 48.3369C197.134 48.1289 197.462 47.8329 197.702 47.4489C197.942 47.0489 198.062 46.5689 198.062 46.0089C198.062 45.4649 197.942 44.9929 197.702 44.5929C197.462 44.1929 197.134 43.8889 196.718 43.6809C196.302 43.4729 195.838 43.3689 195.326 43.3689H191.414V40.7049H195.662C196.734 40.7049 197.694 40.9209 198.542 41.3529C199.406 41.7849 200.086 42.4009 200.582 43.2009C201.078 43.9849 201.326 44.9209 201.326 46.0089C201.326 47.0969 201.078 48.0409 200.582 48.8409C200.086 49.6249 199.406 50.2329 198.542 50.6649C197.694 51.0969 196.734 51.3129 195.662 51.3129H191.414ZM189.014 57.5769V40.7049H192.278V57.5769H189.014ZM207.776 57.8169C206.72 57.8169 205.768 57.5529 204.92 57.0249C204.072 56.4969 203.408 55.7769 202.928 54.8649C202.448 53.9529 202.208 52.9289 202.208 51.7929C202.208 50.6409 202.448 49.6089 202.928 48.6969C203.408 47.7849 204.072 47.0649 204.92 46.5369C205.768 46.0089 206.72 45.7449 207.776 45.7449C208.608 45.7449 209.352 45.9129 210.008 46.2489C210.664 46.5849 211.184 47.0569 211.568 47.6649C211.968 48.2569 212.184 48.9289 212.216 49.6809V53.8569C212.184 54.6249 211.968 55.3049 211.568 55.8969C211.184 56.4889 210.664 56.9609 210.008 57.3129C209.352 57.6489 208.608 57.8169 207.776 57.8169ZM208.352 54.9129C209.232 54.9129 209.944 54.6249 210.488 54.0489C211.032 53.4569 211.304 52.6969 211.304 51.7689C211.304 51.1609 211.176 50.6249 210.92 50.1609C210.68 49.6809 210.336 49.3129 209.888 49.0569C209.456 48.7849 208.944 48.6489 208.352 48.6489C207.776 48.6489 207.264 48.7849 206.816 49.0569C206.384 49.3129 206.04 49.6809 205.784 50.1609C205.544 50.6249 205.424 51.1609 205.424 51.7689C205.424 52.3929 205.544 52.9449 205.784 53.4249C206.04 53.8889 206.384 54.2569 206.816 54.5289C207.264 54.7849 207.776 54.9129 208.352 54.9129ZM211.136 57.5769V54.4569L211.64 51.6249L211.136 48.8409V45.9849H214.256V57.5769H211.136ZM224.838 57.5769V50.9289C224.838 50.2409 224.622 49.6809 224.19 49.2489C223.758 48.8169 223.198 48.6009 222.51 48.6009C222.062 48.6009 221.662 48.6969 221.31 48.8889C220.958 49.0809 220.678 49.3529 220.47 49.7049C220.278 50.0569 220.182 50.4649 220.182 50.9289L218.958 50.3049C218.958 49.3929 219.15 48.6009 219.534 47.9289C219.934 47.2409 220.478 46.7049 221.166 46.3209C221.87 45.9369 222.662 45.7449 223.542 45.7449C224.39 45.7449 225.15 45.9609 225.822 46.3929C226.494 46.8089 227.022 47.3609 227.406 48.0489C227.79 48.7209 227.982 49.4489 227.982 50.2329V57.5769H224.838ZM217.038 57.5769V45.9849H220.182V57.5769H217.038ZM236.058 57.8169C234.842 57.8169 233.762 57.5609 232.818 57.0489C231.874 56.5209 231.122 55.8009 230.562 54.8889C230.018 53.9769 229.746 52.9369 229.746 51.7689C229.746 50.6169 230.01 49.5929 230.538 48.6969C231.082 47.7849 231.818 47.0649 232.746 46.5369C233.674 45.9929 234.706 45.7209 235.842 45.7209C236.962 45.7209 237.946 45.9769 238.794 46.4889C239.658 46.9849 240.33 47.6729 240.81 48.5529C241.306 49.4169 241.554 50.4009 241.554 51.5049C241.554 51.7129 241.538 51.9289 241.506 52.1529C241.49 52.3609 241.45 52.6009 241.386 52.8729L231.642 52.8969V50.5449L239.922 50.5209L238.65 51.5049C238.618 50.8169 238.49 50.2409 238.266 49.7769C238.058 49.3129 237.746 48.9609 237.33 48.7209C236.93 48.4649 236.434 48.3369 235.842 48.3369C235.218 48.3369 234.674 48.4809 234.21 48.7689C233.746 49.0409 233.386 49.4329 233.13 49.9449C232.89 50.4409 232.77 51.0329 232.77 51.7209C232.77 52.4249 232.898 53.0409 233.154 53.5689C233.426 54.0809 233.81 54.4809 234.306 54.7689C234.802 55.0409 235.378 55.1769 236.034 55.1769C236.626 55.1769 237.162 55.0809 237.642 54.8889C238.122 54.6809 238.538 54.3769 238.89 53.9769L240.738 55.8249C240.178 56.4809 239.49 56.9769 238.674 57.3129C237.874 57.6489 237.002 57.8169 236.058 57.8169ZM243.498 57.5769V40.2249H246.642V57.5769H243.498Z" fill="#4B5563"/>
</g>
<defs>
<clipPath id="clip0_115142_2">
<rect width="305" height="58" fill="white"/>
</clipPath>
</defs>
</svg>
