<svg width="27" height="25" viewBox="0 0 27 25" fill="none" xmlns="http://www.w3.org/2000/svg">
<path d="M23.6231 1.54395H20.5661C20.3728 0.67207 19.2218 0 17.8407 0H9.18556C7.80442 0 6.65347 0.67207 6.4509 1.54395H3.76228C2.24303 1.54395 1 2.36133 1 3.36035V22.917C1 23.916 2.24303 24.7334 3.76228 24.7334H23.6231C25.1423 24.7334 26.3853 23.916 26.3853 22.917V3.36035C26.3853 2.36133 25.1515 1.54395 23.6231 1.54395ZM8.2648 1.81641C8.2648 1.4834 8.67914 1.21094 9.18556 1.21094H17.8407C18.3471 1.21094 18.7615 1.4834 18.7615 1.81641V2.48242C18.7615 2.81543 18.3471 3.08789 17.8407 3.08789H9.18556C8.67914 3.08789 8.2648 2.81543 8.2648 2.48242V1.81641ZM24.5438 22.923C24.5438 23.2561 24.1295 23.5285 23.6231 23.5285H3.77149C3.26507 23.5285 2.85073 23.2561 2.85073 22.923V3.36641C2.85073 3.0334 3.26507 2.76094 3.77149 2.76094H6.46011C6.66267 3.63281 7.81362 4.30488 9.19476 4.30488H17.8499C19.231 4.30488 20.382 3.63281 20.5846 2.76094H23.6415C24.1479 2.76094 24.5622 3.0334 24.5622 3.36641V22.923H24.5438Z" fill="#1C274C" stroke="black" stroke-width="0.193359"/>
<path d="M21.8916 15.3184H5.41002C4.9036 15.3184 4.48926 15.5908 4.48926 15.9238C4.48926 16.2568 4.9036 16.5293 5.41002 16.5293H21.8916C22.398 16.5293 22.8124 16.2568 22.8124 15.9238C22.8124 15.5908 22.398 15.3184 21.8916 15.3184Z" fill="#1C274C" stroke="black" stroke-width="0.193359"/>
<path d="M21.8916 12.5938H5.41002C4.9036 12.5938 4.48926 12.8662 4.48926 13.1992C4.48926 13.5322 4.9036 13.8047 5.41002 13.8047H21.8916C22.398 13.8047 22.8124 13.5322 22.8124 13.1992C22.8124 12.8662 22.398 12.5938 21.8916 12.5938Z" fill="#1C274C" stroke="black" stroke-width="0.193359"/>
<path d="M21.8916 9.86914H5.41002C4.9036 9.86914 4.48926 10.1416 4.48926 10.4746C4.48926 10.8076 4.9036 11.0801 5.41002 11.0801H21.8916C22.398 11.0801 22.8124 10.8076 22.8124 10.4746C22.8124 10.1416 22.398 9.86914 21.8916 9.86914Z" fill="#1C274C" stroke="black" stroke-width="0.193359"/>
<path d="M21.8916 7.14453H5.41002C4.9036 7.14453 4.48926 7.41699 4.48926 7.75C4.48926 8.08301 4.9036 8.35547 5.41002 8.35547H21.8916C22.398 8.35547 22.8124 8.08301 22.8124 7.75C22.8124 7.41699 22.398 7.14453 21.8916 7.14453Z" fill="#1C274C" stroke="black" stroke-width="0.193359"/>
</svg>
