<svg width="26" height="28" viewBox="0 0 26 28" fill="none" xmlns="http://www.w3.org/2000/svg">
<g clip-path="url(#clip0_115139_64)">
<path d="M2.31288 24.4047C1.04609 24.4047 0.000488281 23.3003 0.000488281 21.9144V2.49027C0.000488281 1.12604 1.02599 0 2.31288 0H19.2839C20.5506 0 21.5963 1.10438 21.5963 2.49027V11.6718L21.5158 11.6501C21.174 11.5419 20.8523 11.4986 20.4903 11.4986H20.4702L20.4501 11.4336H20.3898V2.49027C20.3898 1.86229 19.867 1.29927 19.2839 1.29927H2.31288C1.72976 1.29927 1.20696 1.86229 1.20696 2.49027V21.9144C1.20696 22.5424 1.72976 23.1054 2.31288 23.1054H11.2206L11.2407 23.1271C11.4619 23.4519 11.3413 23.6901 11.2608 23.8633C11.1804 24.0149 11.1402 24.1232 11.281 24.2747L11.4016 24.4047H2.31288Z" fill="black" stroke="#1C274C" stroke-width="0.648"/>
<path d="M3.61993 4.76397C3.39874 4.76397 3.21777 4.4608 3.21777 4.09268C3.21777 3.72455 3.39874 3.42139 3.61993 3.42139H10.4566C10.6778 3.42139 10.8587 3.72455 10.8587 4.09268C10.8587 4.4608 10.6778 4.76397 10.4566 4.76397H3.61993Z" fill="black" stroke="#1C274C" stroke-width="0.648"/>
<path d="M10.4566 3.48633H3.61993C3.43896 3.48633 3.2781 3.74618 3.2781 4.09266C3.2781 4.43913 3.43896 4.69898 3.61993 4.69898H10.4566C10.6375 4.69898 10.7984 4.43913 10.7984 4.09266C10.7984 3.74618 10.6577 3.48633 10.4566 3.48633ZM3.5395 8.22867C3.35853 8.22867 3.21777 7.94716 3.21777 7.55738C3.21777 7.1676 3.35853 6.88609 3.5395 6.88609H8.4458C8.62677 6.88609 8.76752 7.1676 8.76752 7.55738C8.76752 7.94716 8.62677 8.22867 8.4458 8.22867H3.5395Z" fill="black" stroke="#1C274C" stroke-width="0.648"/>
<path d="M8.44593 6.95107H3.53963C3.39888 6.95107 3.29834 7.21092 3.29834 7.5574C3.29834 7.90387 3.39888 8.16372 3.53963 8.16372H8.44593C8.58669 8.16372 8.68723 7.90387 8.68723 7.5574C8.68723 7.21092 8.56658 6.95107 8.44593 6.95107ZM18.5803 27.891C17.8765 27.891 17.1124 27.8477 16.1271 27.7611C14.6995 27.6312 13.3925 26.9166 12.1257 25.5956L6.41505 19.5757C5.08793 18.1898 5.02761 16.3708 6.21397 14.9849C6.71666 14.4219 7.50087 14.0754 8.34539 14.0754C9.18992 14.0754 9.95402 14.4219 10.4366 15.0282C10.4567 15.0499 10.4969 15.0932 10.5774 15.1365C10.5975 15.1581 10.6377 15.1798 10.6578 15.2014V12.2997V10.8705C10.6578 9.76616 10.6578 8.64012 10.6779 7.53574C10.698 5.89 11.8844 4.63403 13.4528 4.63403H13.4729C14.981 4.63403 16.1271 5.82503 16.2075 7.44912C16.2276 7.81725 16.2276 8.20703 16.2075 8.59681V9.09487H16.5092C17.5548 9.09487 18.3591 9.48465 18.9422 10.3075C18.9623 10.3508 19.083 10.3941 19.2438 10.3941C19.3041 10.3941 19.3645 10.3941 19.4047 10.3725C19.5856 10.3508 19.7666 10.3292 19.9275 10.3292C20.7318 10.3292 21.4356 10.6757 22.0388 11.3903C22.1393 11.4985 22.3605 11.5851 22.5616 11.5851H22.642C22.7828 11.5635 22.9436 11.5418 23.0844 11.5418C24.5925 11.5418 25.799 12.6895 25.8191 14.1837C25.8794 16.9338 25.9196 19.6406 25.6381 22.3258C25.2963 25.574 23.6876 27.3063 20.5508 27.7394C19.9677 27.8477 19.3041 27.891 18.5803 27.891ZM8.24486 15.3097C7.82259 15.3097 7.42044 15.483 7.11882 15.7861C6.75688 16.1759 6.5558 16.6306 6.5558 17.1287C6.5558 17.6484 6.77699 18.1681 7.17914 18.6012L7.94324 19.4241C9.61219 21.1998 11.3415 23.0187 13.0707 24.8161C13.9153 25.6822 14.8804 26.2453 15.9461 26.4618C16.7706 26.635 17.595 26.7217 18.3993 26.7217C19.1232 26.7217 19.8471 26.6567 20.5508 26.5051C23.1045 26.0071 24.2708 24.6861 24.5121 22.1309C24.7332 19.6839 24.7131 17.172 24.6729 14.7467V14.3569C24.6528 13.4691 24.0697 12.8628 23.2453 12.8628C23.0241 12.8628 22.823 12.9061 22.6018 12.9927V16.3708C22.6018 16.674 22.6018 17.2586 22.0388 17.2586H22.0187C21.8377 17.2586 21.697 17.2153 21.6165 17.107C21.4557 16.9338 21.4356 16.609 21.4356 16.3491V16.2192C21.4356 15.2231 21.4557 14.2053 21.4356 13.1876C21.4155 12.2997 20.8323 11.6718 20.028 11.6718C19.8269 11.6718 19.6259 11.7151 19.4449 11.78V15.2881C19.4449 15.5912 19.3846 15.8294 19.2438 15.981C19.1433 16.0893 19.0025 16.1542 18.8216 16.1542H18.8014C18.2585 16.1326 18.2585 15.5263 18.2585 15.3097V13.8805V12.0615C18.2585 11.6501 18.0977 11.217 17.7961 10.8922C17.5145 10.589 17.1325 10.4158 16.7505 10.4158C16.5896 10.4158 16.4086 10.4375 16.2478 10.5024V12.0615C16.2478 12.7978 16.2478 13.5774 16.2075 14.3353C16.1874 14.5302 16.0266 14.6817 15.8657 14.8333C15.8054 14.8983 15.725 14.9632 15.6646 15.0282L15.6043 15.0932L15.5641 14.9849C15.5239 14.9199 15.4636 14.855 15.4032 14.8117C15.2826 14.6601 15.1418 14.5085 15.0614 14.3353C15.0011 14.2053 15.0212 14.0538 15.0212 13.9238V13.7506V11.8667C15.0212 10.4808 15.0212 9.05156 15.0011 7.64401C15.0011 6.6046 14.3777 5.91165 13.4729 5.89C12.4876 5.89 11.824 6.64791 11.824 7.75229V17.9516L11.5626 18.1248L11.5425 18.0815C11.3616 17.865 11.1605 17.6484 10.9795 17.4319C10.5573 16.9555 10.1149 16.4358 9.67251 15.9594C9.27035 15.5479 8.76766 15.3097 8.24486 15.3097Z" fill="black" stroke="#1C274C" stroke-width="0.648"/>
</g>
<defs>
<clipPath id="clip0_115139_64">
<rect width="26" height="28" fill="white"/>
</clipPath>
</defs>
</svg>
