<svg width="66" height="65" viewBox="0 0 66 65" fill="none" xmlns="http://www.w3.org/2000/svg">
<rect width="66" height="65" rx="10" fill="#F6F8FF"/>
<path d="M49.2319 12H18.5653C16.4482 12 14.7319 13.8655 14.7319 16.1667V49.5C14.7319 51.8012 16.4482 53.6667 18.5653 53.6667H49.2319C51.349 53.6667 53.0653 51.8012 53.0653 49.5V16.1667C53.0653 13.8655 51.349 12 49.2319 12Z" fill="#7F9BFF"/>
<path d="M24.3153 30.7501C24.0631 30.7516 23.813 30.6991 23.5795 30.5954C23.346 30.4917 23.1336 30.339 22.9545 30.1459L21.0378 28.0626C20.6769 27.6703 20.4741 27.1382 20.4741 26.5834C20.4741 26.0286 20.6769 25.4965 21.0378 25.1042C21.3987 24.7119 21.8882 24.4915 22.3986 24.4915C22.909 24.4915 23.3985 24.7119 23.7595 25.1042L24.3153 25.7292L26.7878 23.0209C26.9665 22.8266 27.1787 22.6726 27.4122 22.5674C27.6456 22.4623 27.8959 22.4082 28.1486 22.4082C28.4014 22.4082 28.6516 22.4623 28.8851 22.5674C29.1186 22.6726 29.3308 22.8266 29.5095 23.0209C29.6882 23.2151 29.8299 23.4457 29.9266 23.6995C30.0234 23.9533 30.0731 24.2254 30.0731 24.5001C30.0731 24.7748 30.0234 25.0468 29.9266 25.3006C29.8299 25.5544 29.6882 25.785 29.5095 25.9792L25.6761 30.1459C25.497 30.339 25.2846 30.4917 25.0511 30.5954C24.8176 30.6991 24.5675 30.7516 24.3153 30.7501ZM25.6761 42.6459L29.5095 38.4792C29.8704 38.0869 30.0731 37.5549 30.0731 37.0001C30.0731 36.4453 29.8704 35.9132 29.5095 35.5209C29.1485 35.1286 28.659 34.9082 28.1486 34.9082C27.6382 34.9082 27.1487 35.1286 26.7878 35.5209L24.3153 38.2292L23.7595 37.6042C23.3985 37.2119 22.909 36.9915 22.3986 36.9915C21.8882 36.9915 21.3987 37.2119 21.0378 37.6042C20.6769 37.9965 20.4741 38.5286 20.4741 39.0834C20.4741 39.3581 20.5239 39.6301 20.6206 39.8839C20.7173 40.1377 20.8591 40.3683 21.0378 40.5626L22.9545 42.6459C23.1326 42.8412 23.3446 42.9962 23.5782 43.1019C23.8118 43.2077 24.0623 43.2621 24.3153 43.2621C24.5683 43.2621 24.8188 43.2077 25.0524 43.1019C25.286 42.9962 25.498 42.8412 25.6761 42.6459ZM47.3153 39.0834C47.3153 38.5309 47.1134 38.001 46.7539 37.6103C46.3945 37.2196 45.907 37.0001 45.3986 37.0001H35.8153C35.307 37.0001 34.8195 37.2196 34.46 37.6103C34.1006 38.001 33.8986 38.5309 33.8986 39.0834C33.8986 39.6359 34.1006 40.1658 34.46 40.5565C34.8195 40.9472 35.307 41.1667 35.8153 41.1667H45.3986C45.907 41.1667 46.3945 40.9472 46.7539 40.5565C47.1134 40.1658 47.3153 39.6359 47.3153 39.0834ZM47.3153 26.5834C47.3153 26.0309 47.1134 25.501 46.7539 25.1103C46.3945 24.7196 45.907 24.5001 45.3986 24.5001H35.8153C35.307 24.5001 34.8195 24.7196 34.46 25.1103C34.1006 25.501 33.8986 26.0309 33.8986 26.5834C33.8986 27.1359 34.1006 27.6658 34.46 28.0565C34.8195 28.4472 35.307 28.6667 35.8153 28.6667H45.3986C45.907 28.6667 46.3945 28.4472 46.7539 28.0565C47.1134 27.6658 47.3153 27.1359 47.3153 26.5834Z" fill="#3D65F5"/>
</svg>
